FILE "Tengai Makyou - Ziria (Japan) (Rev 7) (En) (v1.0) (LIPEMCO! Translations).bin" BINARY
  TRACK 01 AUDIO
    INDEX 01 00:00:00
  TRACK 02 MODE1/2352
    INDEX 00 00:44:65
    INDEX 01 00:47:71
  TRACK 03 AUDIO
    INDEX 00 14:47:43
    INDEX 01 14:49:43
  TRACK 04 AUDIO
    INDEX 01 16:21:58
  TRACK 05 AUDIO
    INDEX 01 17:42:22
  TRACK 06 MODE1/2352
    INDEX 00 20:57:10
    INDEX 01 21:00:11
